<!-- public/feature-2-icon.svg -->
<svg width="64" height="64" viewBox="0 0 64 64" fill="none" xmlns="http://www.w3.org/2000/svg">
<rect width="64" height="64" fill="transparent"/>
<path d="M22 16H42C43.1046 16 44 16.8954 44 18V46C44 47.1046 43.1046 48 42 48H22C20.8954 48 20 47.1046 20 46V18C20 16.8954 20.8954 16 22 16Z" stroke="#007BFF" strokeWidth="2" strokeLinecap="round" strokeLinejoin="round"/>
<path d="M12 24H20V40H12C10.8954 40 10 39.1046 10 38V26C10 24.8954 10.8954 24 12 24Z" stroke="#007BFF" strokeWidth="2" strokeLinecap="round" strokeLinejoin="round"/>
<path d="M44 24H52V40H44C42.8954 40 42 39.1046 42 38V26C42 24.8954 42.8954 24 44 24Z" stroke="#007BFF" strokeWidth="2" strokeLinecap="round" strokeLinejoin="round"/>
<path d="M28 24L36 40" stroke="#007BFF" strokeWidth="2" strokeLinecap="round" strokeLinejoin="round"/>
<path d="M36 24L28 40" stroke="#007BFF" strokeWidth="2" strokeLinecap="round" strokeLinejoin="round"/>
</svg>